<?xml version="1.0" standalone="no"?>
<!DOCTYPE svg PUBLIC "-//W3C//DTD SVG 20010904//EN"
 "http://www.w3.org/TR/2001/REC-SVG-20010904/DTD/svg10.dtd">
<svg version="1.0" xmlns="http://www.w3.org/2000/svg"
 width="16.000000pt" height="16.000000pt" viewBox="0 0 16.000000 16.000000"
 preserveAspectRatio="xMidYMid meet">
<metadata>
Created by potrace 1.11, written by Peter Selinger 2001-2013
</metadata>
<g transform="translate(0.000000,16.000000) scale(0.001681,-0.001681)"
fill="#000000" stroke="none">
<path d="M0 4755 l0 -4755 4760 0 4760 0 0 4755 0 4755 -4760 0 -4760 0 0
-4755z m5405 2710 c341 -286 997 -837 1458 -1224 l837 -702 0 -375 0 -374
-455 0 -455 0 0 178 0 178 -1010 815 c-556 448 -1017 814 -1025 814 -11 0
-1283 -1038 -1897 -1548 l-118 -97 0 -170 0 -170 -465 0 -465 0 0 1095 0 1095
465 0 465 0 2 -331 3 -330 615 517 c338 285 790 665 1004 846 329 276 392 326
405 315 9 -6 295 -246 636 -532z m-2653 -3665 l3 -690 2003 0 c1101 0 2009 0
2017 0 13 0 15 83 15 690 l0 690 455 0 455 0 0 -1205 0 -1205 -556 0 c-306 1
-559 -1 -561 -4 -2 -2 35 -48 82 -102 96 -110 124 -159 125 -220 0 -98 -71
-199 -156 -223 -24 -7 -169 -11 -380 -11 -367 0 -398 3 -474 54 -26 17 -433
467 -455 504 -1 1 -792 2 -1758 2 l-1757 0 0 1205 0 1205 470 0 470 0 2 -690z"/>
</g>
</svg>
